<svg xmlns="http://www.w3.org/2000/svg" viewBox="0 0 512 415.17"><title>nav-mydashboard</title><g id="Layer_2" data-name="Layer 2"><g id="Layer_1-2" data-name="Layer 1"><path d="M479.38,0H142.64A32.66,32.66,0,0,0,110,32.62V132.75a44.06,44.06,0,0,0-35.39,46.1L76,200.11l3.24,49.66a55.09,55.09,0,0,0,94,35.28H479.38A32.66,32.66,0,0,0,512,252.43V32.62A32.66,32.66,0,0,0,479.38,0Zm-378,159.78a23.47,23.47,0,0,1,17.29-7.5h26.29l-5.68,15.16c-1.56,2.37-12.21,16.66-43.55,20.88l-.7-10.8A23.46,23.46,0,0,1,101.33,159.78Zm63.39-2.23a24.14,24.14,0,0,1,2.4,2.23,23.46,23.46,0,0,1,6.35,17.74l-.13,2a59.94,59.94,0,0,1-10.49-3.74,20.28,20.28,0,0,1-4-2.57Zm-13.78,119A34.7,34.7,0,0,1,99.6,248.44L97,208.71c24.8-3.11,40.26-11.85,49.33-19.43a42.07,42.07,0,0,0,7.15,4.58c4.09,2.11,10.19,4.22,18.5,6.39l-3.14,48.19A34.53,34.53,0,0,1,150.95,276.59ZM451.69,249a10.2,10.2,0,1,0,0-20.4H440.61V60.48a10.2,10.2,0,0,0-10.2-10.2H381.16A10.2,10.2,0,0,0,371,60.48V228.6H358.28v-73a10.2,10.2,0,0,0-10.2-10.2H298.84a10.2,10.2,0,0,0-10.2,10.2v73H276.69v-128a10.2,10.2,0,0,0-10.2-10.2H217.24a10.2,10.2,0,0,0-10.2,10.2v128H190.58L192.91,193l.92-14.18a44.27,44.27,0,0,0-10.24-31.23V46.76a10.2,10.2,0,0,0-20.4,0V134a44,44,0,0,0-13.36-2.09H130.42V32.62A12.23,12.23,0,0,1,142.64,20.4H479.38A12.23,12.23,0,0,1,491.6,32.62V252.43a12.23,12.23,0,0,1-12.22,12.22H186.13a55.4,55.4,0,0,0,3.07-14.88l0-.77H451.69Zm-195.4-20.4H227.44V110.77h28.85Zm81.59,0H309V165.83h28.85Zm82.32,0H391.36V70.68h28.85Z" fill="#999"/><path d="M267.9,374.63a84.16,84.16,0,0,0-82.83-69.18H169.5a10.2,10.2,0,0,0-7.21,3L134.23,336.5l-28.06-28.06a10.2,10.2,0,0,0-7.21-3H83.39A84.16,84.16,0,0,0,.56,374.63a34.41,34.41,0,0,0,33.86,40.54H234a34.41,34.41,0,0,0,33.86-40.54Zm-23.1,15.11a14,14,0,0,1-10.75,5H34.41a14,14,0,0,1-13.79-16.51,63.76,63.76,0,0,1,62.76-52.41H94.73L127,358.14a10.2,10.2,0,0,0,14.42,0l32.29-32.29h11.34a63.76,63.76,0,0,1,62.76,52.41h0A14,14,0,0,1,244.79,389.74Z" fill="#999"/><path d="M472.22,30A10.2,10.2,0,0,0,462,40.19V78.94a10.2,10.2,0,0,0,20.4,0V40.19A10.2,10.2,0,0,0,472.22,30Z" fill="#999"/><path d="M472.22,101.38a10.2,10.2,0,0,0-10.2,10.2v5.1a10.2,10.2,0,1,0,20.4,0v-5.1A10.2,10.2,0,0,0,472.22,101.38Z" fill="#999"/></g></g></svg>