<svg xmlns="http://www.w3.org/2000/svg" viewBox="0 0 47.93 44.8"><title>nav-history</title><g id="Layer_2" data-name="Layer 2"><g id="Layer_1-2" data-name="Layer 1"><path d="M47.68,17.16a1,1,0,0,0-.77-.36H44.8V5.41A1.42,1.42,0,0,0,43.39,4H18.85l-2-3.31A1.41,1.41,0,0,0,15.65,0h-11A1.42,1.42,0,0,0,3.2,1.41V16.8H1A1,1,0,0,0,0,18l3.93,26a1,1,0,0,0,1,.87H43a1,1,0,0,0,1-.87l3.93-26a1,1,0,0,0-.23-.82ZM4.8,1.6H15.55l2,3.31a1.43,1.43,0,0,0,1.21.69H43.2V16.8h-.8V13.6h-.8V11.2h-.8V8.8H7.2v2.4H6.4v2.4H5.6v3.2H4.8ZM7.2,15.2H40.8v1.6H7.2ZM8,12.8H40v.8H8Zm31.2-1.6H8.8v-.8H39.2Zm3.28,32h-37L1.7,18.4H46.23Zm0,0" fill="#999"/></g></g></svg>