<svg xmlns="http://www.w3.org/2000/svg" viewBox="0 0 512 366.65"><title>nav-notification-selected</title><g id="Layer_2" data-name="Layer 2"><g id="Layer_1-2" data-name="Layer 1"><path d="M478.33,111.14H300.8a153.64,153.64,0,0,0-45.13-72C222.75,9.62,180.22-3.92,135.92,1,64.87,8.84,8,66.19.81,137.35a153.43,153.43,0,0,0,120.11,166l37.84,37.84a16.57,16.57,0,0,0,28.28-11.72v-26.5a153.77,153.77,0,0,0,18.17-5.26v1a33.71,33.71,0,0,0,33.67,33.67h56.54l30.12,30.12a14,14,0,0,0,24-9.93V332.41h128.8A33.71,33.71,0,0,0,512,298.74V144.81A33.71,33.71,0,0,0,478.33,111.14ZM177.63,288.49a8,8,0,0,0-6.61,7.89v33.06a.54.54,0,0,1-.91.38l-39.54-39.54a8,8,0,0,0-4.11-2.19A137.4,137.4,0,0,1,137.68,16.92,144.33,144.33,0,0,1,153.57,16,135.79,135.79,0,0,1,245,51a137.27,137.27,0,0,1-67.35,237.44ZM496,298.74a17.66,17.66,0,0,1-17.64,17.64H341.51a8,8,0,0,0-8,8v23.4l-29.07-29.07a8,8,0,0,0-5.67-2.35H238.89a17.66,17.66,0,0,1-17.64-17.64v-7.82a153.16,153.16,0,0,0,83.23-163.74H478.33A17.66,17.66,0,0,1,496,144.81Z" fill="#00728f"/><path d="M438.46,173.35l-79.84,79.84-37.07-37.07a8,8,0,0,0-11.34,11.34l42.74,42.74a8,8,0,0,0,11.34,0l85.51-85.51a8,8,0,1,0-11.34-11.34Z" fill="#00728f"/><path d="M153.38,213.79h0a8,8,0,0,0-8,8h0a8,8,0,0,0,8,8h0a8,8,0,0,0,8-8h0A8,8,0,0,0,153.38,213.79Z" fill="#00728f"/><path d="M153.37,77a50.83,50.83,0,0,0-50.77,50.77,8,8,0,0,0,16,0A34.78,34.78,0,0,1,153.38,93a35.4,35.4,0,0,1,34.74,34.74A35,35,0,0,1,163.38,161a25,25,0,0,0-18,24v2.55a8,8,0,0,0,16,0v-2.55a9.06,9.06,0,0,1,6.59-8.67,51.09,51.09,0,0,0,36.17-48.64A51.43,51.43,0,0,0,153.37,77Z" fill="#00728f"/></g></g></svg>