<svg xmlns="http://www.w3.org/2000/svg" viewBox="0 0 288 376"><title>nav=staffeval</title><g id="Layer_2" data-name="Layer 2"><g id="Layer_1-2" data-name="Layer 1"><path d="M286.72,297.69c.09-.12.18-.23.27-.35l.06-.1c.09-.13.17-.26.24-.4l0-.08a4.81,4.81,0,0,0,.21-.45l0-.06a5.22,5.22,0,0,0,.18-.5s0,0,0-.06.09-.34.13-.51,0-.09,0-.14.05-.29.07-.44,0-.4,0-.6V6a6,6,0,0,0-6-6H6A6,6,0,0,0,0,6V370a6,6,0,0,0,6,6H206c.2,0,.4,0,.6,0l.44-.07.14,0,.5-.12.07,0a5,5,0,0,0,.48-.17l.07,0,.44-.21.09,0,.38-.23.12-.07.34-.25.13-.1.39-.35,0,0,76-76,0,0,.36-.4.09-.12ZM12,12H276V288H206a6,6,0,0,0-6,6v70H12ZM267.52,300,212,355.52V300Zm0,0" fill="#999"/><path d="M119,76H234a6,6,0,1,0,0-12H119a6,6,0,0,0,0,12Zm0,0" fill="#999"/><path d="M65.76,90.24a6,6,0,0,0,8.48,0l32-32a6,6,0,1,0-8.48-8.48L70,77.52l-7.76-7.76a6,6,0,1,0-8.48,8.48Zm0,0" fill="#999"/><path d="M104,126a6,6,0,0,0,6,6H234a6,6,0,1,0,0-12H110a6,6,0,0,0-6,6Zm0,0" fill="#999"/><path d="M86,104H54a6,6,0,0,0-6,6v32a6,6,0,0,0,6,6H86a6,6,0,0,0,6-6V110a6,6,0,0,0-6-6Zm-6,32H60V116H80Zm0,0" fill="#999"/><path d="M234,176H110a6,6,0,0,0,0,12H234a6,6,0,0,0,0-12Zm0,0" fill="#999"/><path d="M86,160H54a6,6,0,0,0-6,6v32a6,6,0,0,0,6,6H86a6,6,0,0,0,6-6V166a6,6,0,0,0-6-6Zm-6,32H60V172H80Zm0,0" fill="#999"/><path d="M234,232H110a6,6,0,1,0,0,12H234a6,6,0,1,0,0-12Zm0,0" fill="#999"/><path d="M86,216H54a6,6,0,0,0-6,6v32a6,6,0,0,0,6,6H86a6,6,0,0,0,6-6V222a6,6,0,0,0-6-6Zm-6,32H60V228H80Zm0,0" fill="#999"/><path d="M182,288H110a6,6,0,0,0,0,12h72a6,6,0,0,0,0-12Zm0,0" fill="#999"/><path d="M86,272H54a6,6,0,0,0-6,6v32a6,6,0,0,0,6,6H86a6,6,0,0,0,6-6V278a6,6,0,0,0-6-6Zm-6,32H60V284H80Zm0,0" fill="#999"/></g></g></svg>