<svg id="Layer_1" data-name="Layer 1" xmlns="http://www.w3.org/2000/svg" viewBox="0 0 48 46.69"><title>nav-home-selected</title><path d="M11.2,28.29H22.4v-8H11.2Zm1.6-1.6v-2.4h8v2.4Zm8-4.8v.8h-8v-.8Zm0,0" fill="#00728f"/><path d="M11.2,31.49v9.6H22.4v-9.6Zm4.8,1.6v2.4H12.8v-2.4Zm-3.2,4H16v2.4H12.8Zm4.8,2.4v-2.4h3.2v2.4Zm3.2-4H17.6v-2.4h3.2Zm0,0" fill="#00728f"/><path d="M25.6,28.29H36.8v-8H25.6Zm1.6-1.6v-.8h8v.8Zm8-4.8v2.4h-8v-2.4Zm0,0" fill="#00728f"/><path d="M47.2,37.89a.8.8,0,0,0-.8.8v.8h-.8v-.8a.8.8,0,0,0-1.6,0v.8h-.8V23.33a3.15,3.15,0,0,0,3.64-.74,3.2,3.2,0,0,0-.37-4.7L26.18,2,24,0,21.88,2,1.53,17.89a3.19,3.19,0,0,0-.37,4.7,3.17,3.17,0,0,0,3.64.74V39.49H4v-.8a.8.8,0,0,0-1.6,0v.8H1.6v-.8a.8.8,0,0,0-1.6,0v7.2a.8.8,0,0,0,1.6,0v-.8h.8v.8a.8.8,0,0,0,1.6,0v-.8h.8v1.6H43.2v-1.6H44v.8a.8.8,0,0,0,1.6,0v-.8h.8v.8a.8.8,0,0,0,1.6,0v-7.2a.8.8,0,0,0-.8-.8ZM2.33,21.5a1.59,1.59,0,0,1,.19-2.34l20.39-16,1.09-1,1.14,1.05L45.48,19.16a1.59,1.59,0,0,1,.19,2.34,1.59,1.59,0,0,1-2.15.18l-.32-.25L24,6.63,5.11,21.19h0l-.63.49a1.59,1.59,0,0,1-2.15-.18Zm-.73,22v-2.4h.8v2.4Zm2.4,0v-2.4h.8v2.4Zm23.2,1.6v-12h8v12Zm14.4,0H36.8V31.49H25.6v13.6H6.4V22.22L24,8.65,41.6,22.22Zm1.6-1.6v-2.4H44v2.4Zm2.4,0v-2.4h.8v2.4Zm0,0" fill="#00728f"/></svg>